<?xml version="1.0" standalone="no"?>
<!DOCTYPE svg PUBLIC "-//W3C//DTD SVG 20010904//EN"
 "http://www.w3.org/TR/2001/REC-SVG-20010904/DTD/svg10.dtd">
<svg version="1.0" xmlns="http://www.w3.org/2000/svg"
 width="80.000000pt" height="70.000000pt" viewBox="0 0 80.000000 70.000000"
 preserveAspectRatio="xMidYMid meet">

<g transform="translate(0.000000,70.000000) scale(0.100000,-0.100000)"
fill="#000000" stroke="none">
<path d="M0 350 l0 -350 400 0 400 0 0 350 0 350 -400 0 -400 0 0 -350z m555
210 c5 -16 15 -20 54 -20 58 0 72 -11 99 -79 18 -43 22 -74 22 -154 0 -107
-11 -137 -53 -137 -10 0 -32 -14 -47 -30 -40 -42 -99 -42 -142 0 -27 27 -36
30 -93 30 -57 0 -66 -3 -93 -30 -24 -23 -39 -30 -69 -30 -38 0 -83 27 -83 50
0 6 -11 10 -25 10 -14 0 -34 9 -45 20 -18 18 -20 33 -20 189 0 141 3 172 16
185 13 14 50 16 244 16 220 0 229 -1 235 -20z"/>
<path d="M124 506 c-3 -7 -4 -42 -2 -77 l3 -64 183 -3 182 -2 0 80 0 80 -180
0 c-143 0 -182 -3 -186 -14z"/>
<path d="M560 450 c0 -17 7 -20 46 -20 38 0 45 3 40 16 -3 9 -6 18 -6 20 0 2
-18 4 -40 4 -33 0 -40 -3 -40 -20z"/>
<path d="M560 338 c0 -29 5 -36 33 -46 19 -7 40 -23 47 -37 20 -37 32 -16 28
51 l-3 59 -52 3 -53 3 0 -33z"/>
<path d="M120 271 c0 -42 11 -43 46 -5 l31 34 -38 0 c-36 0 -39 -2 -39 -29z"/>
<path d="M306 265 c30 -32 37 -35 93 -35 51 0 62 3 75 22 31 44 23 48 -93 48
l-108 0 33 -35z"/>
<path d="M209 224 c-9 -11 -10 -20 -2 -32 14 -22 43 -22 57 1 9 15 7 21 -8 33
-25 18 -31 18 -47 -2z"/>
<path d="M540 225 c-19 -23 -8 -50 20 -50 16 0 26 6 28 18 4 18 -14 47 -28 47
-4 0 -13 -7 -20 -15z"/>
</g>
</svg>
