<?xml version="1.0" standalone="no"?>
<!DOCTYPE svg PUBLIC "-//W3C//DTD SVG 20010904//EN"
 "http://www.w3.org/TR/2001/REC-SVG-20010904/DTD/svg10.dtd">
<svg version="1.0" xmlns="http://www.w3.org/2000/svg"
 width="70.000000pt" height="70.000000pt" viewBox="0 0 70.000000 70.000000"
 preserveAspectRatio="xMidYMid meet">

<g transform="translate(0.000000,70.000000) scale(0.100000,-0.100000)"
fill="#000000" stroke="none">
<path d="M0 350 l0 -350 350 0 350 0 0 350 0 350 -350 0 -350 0 0 -350z m611
259 c7 -15 10 -65 7 -148 -4 -112 -7 -133 -32 -188 -34 -75 -104 -144 -182
-180 l-54 -25 -64 30 c-79 37 -140 96 -174 171 -24 50 -27 70 -30 194 -3 98 0
142 8 152 10 13 55 15 261 15 244 0 249 0 260 -21z"/>
<path d="M142 458 c3 -85 10 -124 25 -158 22 -50 94 -121 148 -147 32 -15 38
-15 68 -1 55 27 114 86 141 140 23 47 26 63 26 165 l0 113 -206 0 -207 0 5
-112z m356 -1 c4 -19 -163 -186 -187 -187 -26 0 -111 80 -111 106 0 13 2 24 4
24 2 0 11 3 19 6 9 3 31 -9 52 -27 l36 -32 67 67 c52 51 73 66 92 64 14 -2 26
-10 28 -21z"/>
</g>
</svg>
