<?xml version="1.0" standalone="no"?>
<!DOCTYPE svg PUBLIC "-//W3C//DTD SVG 20010904//EN"
 "http://www.w3.org/TR/2001/REC-SVG-20010904/DTD/svg10.dtd">
<svg version="1.0" xmlns="http://www.w3.org/2000/svg"
 width="80.000000pt" height="70.000000pt" viewBox="0 0 80.000000 70.000000"
 preserveAspectRatio="xMidYMid meet">

<g transform="translate(0.000000,70.000000) scale(0.100000,-0.100000)"
fill="#000000" stroke="none">
<path d="M0 350 l0 -350 400 0 400 0 0 350 0 350 -400 0 -400 0 0 -350z m700
211 c6 -12 10 -96 10 -203 0 -150 -3 -188 -16 -206 -15 -22 -17 -22 -296 -22
-248 0 -284 2 -300 17 -16 14 -18 35 -18 205 0 111 4 197 10 209 10 18 24 19
305 19 281 0 295 -1 305 -19z"/>
<path d="M144 505 c-13 -32 6 -35 252 -35 l244 0 0 25 0 25 -245 0 c-206 0
-247 -2 -251 -15z"/>
<path d="M144 397 c-3 -8 -3 -56 -2 -108 l3 -94 248 -3 247 -2 0 110 0 110
-245 0 c-195 0 -247 -3 -251 -13z m301 -137 c10 -30 -2 -40 -50 -40 -48 0 -60
10 -50 40 5 16 15 20 50 20 35 0 45 -4 50 -20z m170 -10 c0 -24 -3 -25 -68
-28 -53 -2 -68 0 -73 13 -14 36 3 46 73 43 65 -3 68 -4 68 -28z"/>
</g>
</svg>
